<svg version="1.1" xmlns="http://www.w3.org/2000/svg" xmlns:xlink="http://www.w3.org/1999/xlink" width="68px" height="68px" viewBox="0,0,256,256"><g fill="none" fill-rule="nonzero" stroke="none" stroke-width="1" stroke-linecap="butt" stroke-linejoin="miter" stroke-miterlimit="10" stroke-dasharray="" stroke-dashoffset="0" font-family="none" font-weight="none" font-size="none" text-anchor="none" style="mix-blend-mode: normal"><g transform="scale(3.76471,3.76471)"><path d="M63.75,58.97363v3.03003c0,2.20996 -1.78998,4 -4,4h-53.75c-2.21002,0 -4,-1.79004 -4,-4v-3.03003c0,2.21002 1.78998,4 4,4h53.75c2.21002,0 4,-1.78998 4,-4z" fill-opacity="0" fill="#e8e8e8"></path><path d="M60.54792,54.88367h-21.08789l-1.10004,2.22998h-8.71997l-1.10004,-2.22998h-23.34206v3.02997h21.34206l1.10004,2.22998h12.71997l1.10004,-2.22998h19.08789z" fill-opacity="0" fill="#e8e8e8"></path><path d="M60.5481,58.91064c-0.55225,0 -1,-0.44727 -1,-1v-21.78027c0,-0.55273 0.44775,-1 1,-1c0.55225,0 1,0.44727 1,1v21.78027c0,0.55273 -0.44775,1 -1,1z" fill="#b4b4b4"></path><path d="M5.198,58.91064c-0.55225,0 -1,-0.44727 -1,-1v-37.4209c0,-2.20605 1.79443,-4 4,-4h35.64014c0.55225,0 1,0.44727 1,1c0,0.55273 -0.44775,1 -1,1h-35.64014c-1.10303,0 -2,0.89746 -2,2v37.4209c0,0.55273 -0.44775,1 -1,1z" fill="#b4b4b4"></path><path d="M59.7522,66.99951h-53.75c-2.75684,0 -5,-2.24316 -5,-5v-4.08984c0,-0.55273 0.44775,-1 1,-1h24.54004c0.38086,0 0.729,0.2168 0.89746,0.55859l0.82471,1.67578h11.47559l0.8252,-1.67578c0.16797,-0.3418 0.51611,-0.55859 0.89697,-0.55859h22.29004c0.55225,0 1,0.44727 1,1v4.08984c0,2.75684 -2.24316,5 -5,5zM3.0022,58.90967v3.08984c0,1.6543 1.3457,3 3,3h53.75c1.6543,0 3,-1.3457 3,-3v-3.08984h-20.66797l-0.8252,1.67578c-0.16797,0.3418 -0.51611,0.55859 -0.89697,0.55859h-12.72021c-0.38086,0 -0.729,-0.2168 -0.89746,-0.55859l-0.82471,-1.67578z" fill="#b4b4b4"></path><path d="M63.9978,37.13037h-18.15967c-1.6543,0 -3,-1.3457 -3,-3v-5.65039c0,-0.55273 0.44775,-1 1,-1h22.15967c0.55225,0 1,0.44727 1,1v5.65039c0,1.6543 -1.3457,3 -3,3zM44.83813,29.47998v4.65039c0,0.55176 0.44873,1 1,1h18.15967c0.55127,0 1,-0.44824 1,-1v-4.65039z" fill="#b4b4b4"></path><path d="M65.9978,29.47998h-22.15967c-0.55225,0 -1,-0.44727 -1,-1v-24.47949c0,-1.6543 1.3457,-3 3,-3h18.15967c1.6543,0 3,1.3457 3,3v24.47949c0,0.55273 -0.44775,1 -1,1zM44.83813,27.47998h20.15967v-23.47949c0,-0.55176 -0.44873,-1 -1,-1h-18.15967c-0.55127,0 -1,0.44824 -1,1z" fill="#b4b4b4"></path><path d="M18.94556,45.36475c-0.25635,0 -0.5127,-0.09766 -0.70801,-0.29395l-5.99365,-6.00684c-0.38965,-0.39062 -0.38916,-1.02344 0.00098,-1.41309l5.99365,-5.99316c0.39063,-0.39062 1.02344,-0.39062 1.41406,0c0.39063,0.39063 0.39063,1.02344 0,1.41406l-5.28711,5.28711l5.28809,5.2998c0.39014,0.39063 0.38916,1.02344 -0.00146,1.41406c-0.19531,0.19434 -0.45117,0.29199 -0.70654,0.29199z" fill="#f828a0"></path><path d="M32.60083,45.36475c-0.25537,0 -0.51123,-0.09766 -0.70605,-0.29199c-0.39111,-0.39062 -0.39209,-1.02344 -0.00195,-1.41406l5.2876,-5.2998l-5.28662,-5.28711c-0.39062,-0.39062 -0.39062,-1.02344 0,-1.41406c0.39063,-0.39062 1.02344,-0.39062 1.41406,0l5.99316,5.99316c0.39014,0.39063 0.39063,1.02246 0.00098,1.41309l-5.99316,6.00684c-0.19531,0.19629 -0.45166,0.29395 -0.70801,0.29395z" fill="#f828a0"></path><path d="M21.51147,49.89209c-0.125,0 -0.25195,-0.02344 -0.37451,-0.07324c-0.51221,-0.20703 -0.75928,-0.79004 -0.55176,-1.30176l8.52246,-21.05469c0.20703,-0.5127 0.79102,-0.75781 1.30176,-0.55176c0.51221,0.20703 0.75928,0.79004 0.55176,1.30176l-8.52246,21.05469c-0.15723,0.38965 -0.53174,0.625 -0.92725,0.625z" fill="#f828a0"></path><path d="M33.99976,18.49365c-0.55225,0 -1,-0.44727 -1,-1v-7.19043c0,-1.6543 1.3457,-3 3,-3h7.84033c0.55225,0 1,0.44727 1,1c0,0.55273 -0.44775,1 -1,1h-7.84033c-0.55127,0 -1,0.44824 -1,1v7.19043c0,0.55273 -0.44775,1 -1,1z" fill="#b4b4b4"></path><path d="M58.35278,8.00049h-3.64404c-0.55225,0 -1,-0.44727 -1,-1c0,-0.55273 0.44775,-1 1,-1h3.64404c0.55225,0 1,0.44727 1,1c0,0.55273 -0.44775,1 -1,1z" fill="#f828a0"></path><path d="M51.47974,8.00342c-0.25977,0 -0.50977,-0.11035 -0.69971,-0.2998c-0.19043,-0.19043 -0.30029,-0.44043 -0.30029,-0.7002c0,-0.26953 0.10986,-0.51953 0.30029,-0.70996c0.36963,-0.37012 1.04004,-0.37012 1.40967,0c0.18994,0.19043 0.29004,0.44043 0.29004,0.70996c0,0.25977 -0.1001,0.50977 -0.29004,0.7002c-0.18994,0.18945 -0.43994,0.2998 -0.70996,0.2998z" fill="#f828a0"></path></g></g></svg>