<svg version="1.1" xmlns="http://www.w3.org/2000/svg" xmlns:xlink="http://www.w3.org/1999/xlink" width="24px" height="24px" viewBox="0,0,256,256"><defs><clipPath id="clip-1"><path d="M4.92308,251.07692v-246.15385h246.15385v246.15385zM131.49123,54.40351c-41.16267,0 -74.66667,33.49333 -74.66667,74.66667c0,41.17333 33.504,74.66667 74.66667,74.66667c41.16267,0 74.66667,-33.49333 74.66667,-74.66667c0,-41.17333 -33.504,-74.66667 -74.66667,-74.66667z" id="overlayBgMask" fill="none"></path></clipPath></defs><g transform="translate(-5.12,-5.12) scale(1.04,1.04)"><g clip-path="url(#clip-1)" fill="none" fill-rule="nonzero" stroke="none" stroke-width="1" stroke-linecap="butt" stroke-linejoin="miter" stroke-miterlimit="10" stroke-dasharray="" stroke-dashoffset="0" font-family="none" font-weight="none" font-size="none" text-anchor="none" style="mix-blend-mode: normal"><g transform="scale(10.66667,10.66667)" fill="#a359d8"><path d="M9,2c-1.13967,0 -2.53933,0.2162 -3.76758,0.95898c-1.22825,0.74278 -2.23242,2.14376 -2.23242,4.04102v1c0,1 -0.03019,1.63504 -0.17773,2.00391c-0.1418,0.35451 -0.38419,0.64221 -1.18359,1.05469c-0.36833,0.13852 -0.62119,0.48017 -0.64606,0.87291c-0.02486,0.39273 0.1829,0.76354 0.53082,0.94741c0.00518,0.0033 0.01039,0.00656 0.01563,0.00977c0.00454,0.00199 0.0091,0.00394 0.01367,0.00586c0.00065,0.00065 0.0013,0.0013 0.00195,0.00195c0.87846,0.4396 1.12019,0.73113 1.26758,1.09961c0.14755,0.36887 0.17773,1.00391 0.17773,2.00391v1c0,1.89726 1.00417,3.29823 2.23242,4.04102c1.22825,0.74278 2.62791,0.95898 3.76758,0.95898c0.36064,0.0051 0.69608,-0.18438 0.87789,-0.49587c0.18181,-0.3115 0.18181,-0.69676 0,-1.00825c-0.18181,-0.3115 -0.51725,-0.50097 -0.87789,-0.49587c-0.86033,0 -1.96067,-0.2032 -2.73242,-0.66992c-0.77175,-0.46672 -1.26758,-1.06533 -1.26758,-2.33008v-1c0,-1 0.03019,-1.86496 -0.32227,-2.74609c-0.18636,-0.46591 -0.4936,-0.88123 -0.90039,-1.25391c0.40679,-0.37267 0.71403,-0.788 0.90039,-1.25391c0.35245,-0.88113 0.32227,-1.74609 0.32227,-2.74609v-1c0,-1.26474 0.49583,-1.86336 1.26758,-2.33008c0.77175,-0.46672 1.87209,-0.66992 2.73242,-0.66992c0.36064,0.0051 0.69608,-0.18438 0.87789,-0.49587c0.18181,-0.3115 0.18181,-0.69676 0,-1.00825c-0.18181,-0.3115 -0.51725,-0.50097 -0.87789,-0.49587zM15,2c-0.36064,-0.0051 -0.69608,0.18438 -0.87789,0.49587c-0.18181,0.3115 -0.18181,0.69676 0,1.00825c0.18181,0.3115 0.51725,0.50097 0.87789,0.49587c0.86033,0 1.96067,0.2032 2.73242,0.66992c0.77175,0.46672 1.26758,1.06533 1.26758,2.33008v1c0,1 -0.03019,1.86496 0.32227,2.74609c0.18636,0.46591 0.4936,0.88123 0.90039,1.25391c-0.40679,0.37267 -0.71403,0.788 -0.90039,1.25391c-0.35245,0.88113 -0.32227,1.74609 -0.32227,2.74609v1c0,1.26474 -0.49582,1.86336 -1.26758,2.33008c-0.77175,0.46672 -1.87209,0.66992 -2.73242,0.66992c-0.36064,-0.0051 -0.69608,0.18438 -0.87789,0.49587c-0.18181,0.3115 -0.18181,0.69676 0,1.00825c0.18181,0.3115 0.51725,0.50097 0.87789,0.49587c1.13967,0 2.53933,-0.2162 3.76758,-0.95898c1.22825,-0.74278 2.23242,-2.14376 2.23242,-4.04102v-1c0,-1 0.03019,-1.63504 0.17773,-2.00391c0.14755,-0.36887 0.38879,-0.66119 1.26953,-1.10156c0.01519,-0.00808 0.03017,-0.01654 0.04492,-0.02539c0.00655,-0.00318 0.01306,-0.00644 0.01953,-0.00977c0.00196,-0.0013 0.00391,-0.0026 0.00586,-0.00391c0.32944,-0.19518 0.51851,-0.56133 0.48692,-0.94294c-0.03159,-0.38161 -0.27831,-0.71168 -0.63536,-0.85003c-0.80644,-0.4149 -1.04909,-0.7028 -1.19141,-1.05859c-0.14755,-0.36887 -0.17773,-1.00391 -0.17773,-2.00391v-1c0,-1.89726 -1.00417,-3.29823 -2.23242,-4.04102c-1.22825,-0.74278 -2.62791,-0.95898 -3.76758,-0.95898z"></path></g></g><g fill="#20c997" fill-rule="nonzero" stroke="none" stroke-width="1" stroke-linecap="butt" stroke-linejoin="miter" stroke-miterlimit="10" stroke-dasharray="" stroke-dashoffset="0" font-family="none" font-weight="none" font-size="none" text-anchor="none" style="mix-blend-mode: normal"><g transform="translate(78.15789,75.73684) scale(10.66667,10.66667)" id="overlay"><path d="M8.923,5.76c0.048,-0.247 0.077,-0.5 0.077,-0.76c0,-0.26 -0.029,-0.513 -0.077,-0.76l0.807,-0.599c0.103,-0.077 0.133,-0.219 0.068,-0.33l-0.936,-1.622c-0.064,-0.111 -0.202,-0.157 -0.32,-0.106l-0.936,0.405c-0.379,-0.328 -0.817,-0.584 -1.301,-0.752l-0.117,-1.012c-0.015,-0.128 -0.123,-0.224 -0.252,-0.224h-1.872c-0.129,0 -0.237,0.096 -0.252,0.224l-0.117,1.012c-0.484,0.168 -0.922,0.424 -1.301,0.752l-0.936,-0.405c-0.118,-0.051 -0.256,-0.005 -0.32,0.106l-0.936,1.622c-0.064,0.111 -0.035,0.253 0.068,0.33l0.807,0.599c-0.048,0.247 -0.077,0.5 -0.077,0.76c0,0.26 0.029,0.513 0.077,0.76l-0.807,0.599c-0.103,0.077 -0.133,0.219 -0.068,0.33l0.936,1.621c0.064,0.112 0.202,0.157 0.32,0.106l0.936,-0.405c0.379,0.329 0.817,0.585 1.301,0.753l0.117,1.012c0.015,0.128 0.123,0.224 0.252,0.224h1.872c0.129,0 0.237,-0.096 0.252,-0.224l0.117,-1.012c0.484,-0.168 0.922,-0.424 1.301,-0.752l0.936,0.405c0.118,0.051 0.256,0.005 0.32,-0.106l0.936,-1.621c0.064,-0.112 0.035,-0.254 -0.068,-0.33zM5,7c-1.104,0 -2,-0.896 -2,-2c0,-1.105 0.896,-2 2,-2c1.104,0 2,0.895 2,2c0,1.104 -0.896,2 -2,2z"></path></g></g></g></svg>